ply
format ascii 1.0
comment DroneDB local-coords test cloud (no SRS)
element vertex 100
property float x
property float y
property float z
property uchar red
property uchar green
property uchar blue
end_header
0 0 2 255 255 255
0 1 2 255 255 255
0 2 2 255 255 255
0 3 2 255 255 255
0 4 2 255 255 255
0 5 2 255 255 255
0 6 2 255 255 255
0 7 2 255 255 255
0 8 2 255 255 255
0 9 2 255 255 255
1 0 2.479 255 255 255
1 1 2.421 255 255 255
1 2 2.259 255 255 255
1 3 2.034 255 255 255
1 4 1.8 255 255 255
1 5 1.616 255 255 255
1 6 1.525 255 255 255
1 7 1.551 255 255 255
1 8 1.687 255 255 255
1 9 1.899 255 255 255
2 0 2.841 255 255 255
2 1 2.738 255 255 255
2 2 2.455 255 255 255
2 3 2.06 255 255 255
2 4 1.65 255 255 255
2 5 1.326 255 255 255
2 6 1.167 255 255 255
2 7 1.212 255 255 255
2 8 1.45 255 255 255
2 9 1.823 255 255 255
3 0 2.997 255 255 255
3 1 2.875 255 255 255
3 2 2.539 255 255 255
3 3 2.071 255 255 255
3 4 1.585 255 255 255
3 5 1.201 255 255 255
3 6 1.012 255 255 255
3 7 1.066 255 255 255
3 8 1.348 255 255 255
3 9 1.79 255 255 255
4 0 2.909 255 255 255
4 1 2.798 255 255 255
4 2 2.491 255 255 255
4 3 2.064 255 255 255
4 4 1.622 255 255 255
4 5 1.272 255 255 255
4 6 1.1 255 255 255
4 7 1.148 255 255 255
4 8 1.406 255 255 255
4 9 1.808 255 255 255
5 0 2.598 255 255 255
5 1 2.525 255 255 255
5 2 2.323 255 255 255
5 3 2.042 255 255 255
5 4 1.751 255 255 255
5 5 1.521 255 255 255
5 6 1.408 255 255 255
5 7 1.44 255 255 255
5 8 1.609 255 255 255
5 9 1.874 255 255 255
6 0 2.141 255 255 255
6 1 2.124 255 255 255
6 2 2.076 255 255 255
6 3 2.01 255 255 255
6 4 1.941 255 255 255
6 5 1.887 255 255 255
6 6 1.86 255 255 255
6 7 1.868 255 255 255
6 8 1.908 255 255 255
6 9 1.97 255 255 255
7 0 1.649 255 255 255
7 1 1.692 255 255 255
7 2 1.81 255 255 255
7 3 1.975 255 255 255
7 4 2.146 255 255 255
7 5 2.281 255 255 255
7 6 2.347 255 255 255
7 7 2.328 255 255 255
7 8 2.229 255 255 255
7 9 2.074 255 255 255
8 0 1.243 255 255 255
8 1 1.336 255 255 255
8 2 1.591 255 255 255
8 3 1.946 255 255 255
8 4 2.315 255 255 255
8 5 2.606 255 255 255
8 6 2.749 255 255 255
8 7 2.709 255 255 255
8 8 2.495 255 255 255
8 9 2.16 255 255 255
9 0 1.022 255 255 255
9 1 1.142 255 255 255
9 2 1.472 255 255 255
9 3 1.931 255 255 255
9 4 2.407 255 255 255
9 5 2.783 255 255 255
9 6 2.968 255 255 255
9 7 2.915 255 255 255
9 8 2.639 255 255 255
9 9 2.206 255 255 255
